<svg width="656" height="611" viewBox="0 0 656 611" fill="none" xmlns="http://www.w3.org/2000/svg">
<g clip-path="url(#clip0_1_2)">
<rect width="656" height="611" fill="#88FF9A"/>
<path d="M565.667 304.666C565.667 162.361 450.231 47 307.834 47C165.436 47 50 162.361 50 304.666C50 446.972 165.436 562.333 307.834 562.333C450.231 562.333 565.667 446.972 565.667 304.666Z" fill="#88FF9A"/>
<g filter="url(#filter0_d_1_2)">
<path d="M570.143 361.874C589.92 361.874 605.953 345.841 605.953 326.064C605.953 306.287 589.92 290.254 570.143 290.254C550.366 290.254 534.333 306.287 534.333 326.064C534.333 345.841 550.366 361.874 570.143 361.874Z" fill="#090E16"/>
</g>
<mask id="mask0_1_2" style="mask-type:luminance" maskUnits="userSpaceOnUse" x="552" y="308" width="37" height="36">
<path d="M588.048 308.159H552.238V343.969H588.048V308.159Z" fill="white"/>
</mask>
<g mask="url(#mask0_1_2)">
<path fill-rule="evenodd" clip-rule="evenodd" d="M585.251 308.159H555.036C553.491 308.159 552.238 309.411 552.238 310.956V341.171C552.238 342.716 553.491 343.969 555.036 343.969H585.251C586.796 343.969 588.049 342.716 588.049 341.171V310.956C588.049 309.411 586.796 308.159 585.251 308.159ZM573.293 340.065V336.202C573.994 336.79 574.755 337.23 575.577 337.524C576.399 337.818 577.229 337.965 578.066 337.965C578.558 337.965 578.987 337.92 579.353 337.832C579.72 337.743 580.026 337.621 580.272 337.464C580.517 337.307 580.701 337.121 580.821 336.908C580.942 336.695 581.003 336.463 581.003 336.214C581.003 335.876 580.906 335.574 580.713 335.308C580.519 335.043 580.255 334.797 579.921 334.572C579.587 334.347 579.19 334.129 578.731 333.92C578.272 333.711 577.776 333.498 577.245 333.28C575.891 332.717 574.882 332.028 574.218 331.216C573.553 330.403 573.221 329.421 573.221 328.27C573.221 327.368 573.402 326.593 573.765 325.945C574.127 325.298 574.621 324.764 575.245 324.346C575.869 323.927 576.592 323.619 577.414 323.422C578.236 323.225 579.105 323.126 580.024 323.126C580.926 323.126 581.726 323.181 582.422 323.289C583.119 323.398 583.762 323.565 584.35 323.79V327.4C584.06 327.199 583.743 327.022 583.401 326.869C583.059 326.716 582.706 326.589 582.344 326.489C581.981 326.388 581.621 326.314 581.262 326.265C580.904 326.217 580.564 326.193 580.241 326.193C579.798 326.193 579.395 326.235 579.033 326.32C578.67 326.404 578.364 326.523 578.115 326.676C577.865 326.829 577.672 327.012 577.535 327.225C577.398 327.439 577.329 327.678 577.329 327.944C577.329 328.233 577.406 328.493 577.559 328.722C577.712 328.952 577.929 329.169 578.211 329.374C578.493 329.58 578.836 329.781 579.238 329.978C579.641 330.175 580.096 330.378 580.604 330.588C581.297 330.877 581.919 331.185 582.471 331.511C583.022 331.837 583.496 332.206 583.89 332.616C584.285 333.027 584.587 333.495 584.797 334.023C585.006 334.55 585.111 335.164 585.111 335.864C585.111 336.83 584.928 337.641 584.561 338.297C584.195 338.953 583.697 339.484 583.069 339.89C582.441 340.297 581.709 340.589 580.876 340.766C580.042 340.943 579.162 341.031 578.236 341.031C577.285 341.031 576.381 340.951 575.523 340.79C574.665 340.629 573.922 340.387 573.293 340.065ZM571.822 326.587H566.854V340.752H562.918V326.587H557.974V323.406H571.822V326.587Z" fill="#88FF9A"/>
</g>
<g filter="url(#filter1_d_1_2)">
<path d="M85.8102 270.558C105.588 270.558 121.62 254.525 121.62 234.748C121.62 214.971 105.588 198.938 85.8102 198.938C66.0328 198.938 50 214.971 50 234.748C50 254.525 66.0328 270.558 85.8102 270.558Z" fill="#090E16"/>
</g>
<path d="M99.2073 228.45C98.7898 228.306 98.3571 228.17 97.9116 228.041C97.9849 227.742 98.0521 227.447 98.1118 227.158C99.0926 222.397 98.4513 218.561 96.2616 217.298C94.1619 216.088 90.7279 217.35 87.2599 220.368C86.9264 220.659 86.5919 220.966 86.2577 221.288C86.0349 221.075 85.8125 220.869 85.5907 220.672C81.9561 217.445 78.3129 216.085 76.1253 217.351C74.0276 218.565 73.4064 222.171 74.2892 226.683C74.3745 227.119 74.4741 227.564 74.5868 228.016C74.0712 228.163 73.5734 228.319 73.0972 228.485C68.8359 229.97 66.1145 232.299 66.1145 234.714C66.1145 237.208 69.036 239.71 73.4744 241.227C73.8246 241.347 74.1881 241.46 74.5626 241.568C74.441 242.057 74.3353 242.537 74.2465 243.004C73.4047 247.438 74.0621 250.958 76.1542 252.165C78.3152 253.411 81.9419 252.13 85.4734 249.043C85.7525 248.799 86.0326 248.541 86.3132 248.269C86.677 248.62 87.0401 248.951 87.4014 249.262C90.822 252.206 94.2005 253.394 96.2906 252.184C98.4495 250.935 99.1511 247.153 98.2402 242.552C98.1706 242.2 98.0897 241.841 97.9988 241.476C98.2534 241.4 98.5035 241.323 98.7473 241.242C103.361 239.713 106.364 237.242 106.364 234.714C106.364 232.29 103.554 229.946 99.2073 228.45ZM98.2065 239.61C97.9864 239.683 97.7606 239.753 97.5305 239.821C97.0211 238.209 96.3336 236.494 95.4923 234.722C96.2952 232.993 96.9561 231.3 97.4512 229.698C97.8629 229.817 98.2625 229.943 98.6476 230.075C102.372 231.358 104.644 233.253 104.644 234.714C104.644 236.27 102.191 238.29 98.2065 239.61ZM96.5534 242.885C96.9562 244.92 97.0137 246.76 96.7469 248.198C96.5072 249.49 96.0251 250.351 95.4291 250.696C94.1606 251.43 91.4481 250.476 88.5227 247.959C88.1873 247.67 87.8496 247.362 87.5107 247.036C88.6448 245.796 89.7782 244.354 90.8845 242.752C92.8302 242.579 94.6685 242.297 96.3356 241.912C96.4177 242.243 96.4906 242.568 96.5534 242.885ZM79.8363 250.569C78.597 251.007 77.61 251.02 77.0134 250.676C75.7438 249.943 75.216 247.117 75.9359 243.325C76.0184 242.891 76.1165 242.445 76.2297 241.989C77.8785 242.353 79.7033 242.616 81.6537 242.774C82.7674 244.341 83.9336 245.781 85.1088 247.043C84.852 247.29 84.5963 247.526 84.3419 247.749C82.7803 249.114 81.2154 250.082 79.8363 250.569ZM74.0305 239.6C72.0679 238.93 70.4471 238.058 69.3361 237.106C68.3379 236.251 67.8339 235.403 67.8339 234.714C67.8339 233.248 70.0189 231.379 73.6631 230.108C74.1053 229.954 74.5682 229.809 75.0486 229.672C75.5522 231.311 76.2129 233.024 77.0102 234.756C76.2026 236.514 75.5325 238.254 75.0239 239.911C74.6815 239.813 74.3497 239.709 74.0305 239.6ZM75.9766 226.353C75.2202 222.487 75.7226 219.571 76.9867 218.839C78.3332 218.06 81.3108 219.171 84.449 221.958C84.6496 222.136 84.851 222.322 85.053 222.515C83.8836 223.771 82.728 225.2 81.6242 226.758C79.7313 226.934 77.9193 227.215 76.2533 227.593C76.1486 227.172 76.0558 226.758 75.9766 226.353ZM93.3382 230.64C92.94 229.952 92.5311 229.28 92.1143 228.627C93.3985 228.789 94.6289 229.005 95.7843 229.269C95.4375 230.38 95.0051 231.543 94.4961 232.734C94.131 232.041 93.7449 231.342 93.3382 230.64ZM86.2582 223.744C87.0513 224.603 87.8455 225.562 88.6267 226.603C87.8395 226.566 87.0426 226.547 86.239 226.547C85.4431 226.547 84.652 226.566 83.8697 226.602C84.6516 225.571 85.4527 224.613 86.2582 223.744ZM79.1329 230.652C78.735 231.342 78.356 232.037 77.9967 232.733C77.496 231.546 77.0676 230.378 76.7177 229.25C77.8661 228.993 79.0907 228.783 80.3667 228.624C79.944 229.283 79.5318 229.96 79.1329 230.652ZM80.4034 240.927C79.0851 240.78 77.8421 240.58 76.694 240.33C77.0495 239.183 77.4873 237.99 77.9986 236.777C78.3589 237.473 78.7394 238.168 79.1397 238.86C79.5474 239.564 79.9699 240.254 80.4034 240.927ZM86.3058 245.805C85.4909 244.926 84.678 243.953 83.8841 242.907C84.6548 242.937 85.4405 242.953 86.239 242.953C87.0594 242.953 87.8704 242.934 88.6686 242.899C87.8849 243.964 87.0935 244.938 86.3058 245.805ZM94.5125 236.715C95.0505 237.941 95.504 239.128 95.8641 240.256C94.6971 240.522 93.4371 240.736 92.1096 240.896C92.5274 240.234 92.9398 239.551 93.3451 238.848C93.7551 238.137 94.1444 237.425 94.5125 236.715ZM91.8557 237.989C91.2266 239.08 90.5806 240.121 89.9249 241.104C88.7305 241.189 87.4966 241.233 86.239 241.233C84.9865 241.233 83.7681 241.195 82.5949 241.118C81.9127 240.123 81.2528 239.078 80.6276 237.998C80.0041 236.921 79.4304 235.835 78.9104 234.755C79.4302 233.673 80.0026 232.586 80.6225 231.511C81.244 230.433 81.8981 229.394 82.574 228.404C83.771 228.313 84.9985 228.266 86.239 228.266C87.4851 228.266 88.7141 228.314 89.9108 228.405C90.5763 229.387 91.2261 230.423 91.8501 231.501C92.4812 232.592 93.0609 233.672 93.5852 234.731C93.0625 235.808 92.4841 236.899 91.8557 237.989ZM95.4027 218.788C96.7505 219.565 97.2747 222.7 96.4278 226.81C96.3738 227.073 96.313 227.34 96.2469 227.611C94.5771 227.225 92.7638 226.939 90.8654 226.761C89.7594 225.186 88.6133 223.754 87.463 222.514C87.7723 222.217 88.0811 221.933 88.3887 221.665C91.3601 219.079 94.1374 218.058 95.4027 218.788ZM86.239 231.12C88.224 231.12 89.8331 232.729 89.8331 234.714C89.8331 236.699 88.224 238.308 86.239 238.308C84.2541 238.308 82.6449 236.699 82.6449 234.714C82.6449 232.729 84.2541 231.12 86.239 231.12Z" fill="#88FF9A"/>
<path d="M272.383 356.027L267.972 353.676V358.674V426.782V429.782H270.972H381.603H384.603V426.782V401.582V398.501L384.238 398.51V358.673V353.646L379.814 356.032C348.356 372.998 308.205 375.121 272.383 356.027Z" fill="white" stroke="white" stroke-width="6"/>
<path d="M272.383 391.788L267.971 389.437V394.436V418.166L249.293 418.071H249.219L249.144 418.074L248.529 418.101L245.663 418.229V421.098C245.663 441.332 256.253 455.853 271.782 465.014C287.193 474.107 307.514 477.988 327.614 477.365C347.723 476.742 367.973 471.6 383.298 462.255C398.647 452.895 409.379 439.072 409.379 421.198V418.31L406.493 418.2L406.185 418.188L406.091 418.185L405.996 418.187L384.238 418.729V394.436V389.409L379.814 391.795C348.356 408.76 308.204 410.883 272.383 391.788Z" fill="white" stroke="white" stroke-width="6"/>
<path d="M204.792 120.777L203.532 121.58L203.413 123.068L197.165 201.134C191.156 198.948 182.767 197.625 175.137 203.43L174.092 204.224L173.967 205.53C173.766 207.625 173.492 209.987 173.196 212.541C172.001 222.847 170.443 236.292 171.817 248C172.68 255.358 174.73 262.452 179.059 267.828C183.089 272.833 188.879 276.083 196.758 276.869C227.534 438.803 441.173 421.674 455.273 276.318C463.131 275.329 468.968 271.989 473.103 266.988C477.594 261.559 479.853 254.446 480.884 247.024C482.729 233.738 480.754 218.363 479.333 207.297C479.174 206.06 479.022 204.877 478.883 203.756L478.721 202.448L477.648 201.683C471.472 197.279 463.674 195.382 456.344 198.013C458.844 172.484 457.482 148.179 447.016 122.996L446.779 122.426L446.336 121.995C426.667 102.889 388.321 88.5891 344.177 85.9788C299.907 83.361 249.273 92.4553 204.792 120.777Z" fill="white" stroke="white" stroke-width="6"/>
<path d="M192.883 181.589L189.321 182.182L190.188 184.562C189.532 185.05 188.386 185.734 186.493 186.704C184.182 187.859 182.278 188.843 180.766 189.779C179.248 190.719 177.943 191.719 176.95 192.975C174.859 195.619 174.725 198.706 174.713 202.253V202.263V202.614C174.713 207.426 175.032 211.319 176.694 214.094C178.587 217.254 181.739 218.317 185.235 218.816L185.243 218.818C188.415 219.262 190.871 219.83 192.606 220.453C193.472 220.764 194.089 221.065 194.501 221.326C194.681 221.439 194.799 221.531 194.874 221.596C194.888 221.654 194.905 221.727 194.923 221.816C195.007 222.218 195.095 222.777 195.175 223.468C195.334 224.846 195.443 226.601 195.443 228.388C195.443 232.744 196.113 237.886 197.169 242.683C198.218 247.453 199.697 252.107 201.421 255.426C211.005 274.065 235.422 282.755 263.627 279.467L263.642 279.465L263.658 279.463C277.56 277.697 285.986 274.939 295.116 268.857L295.121 268.854C301.9 264.319 306.995 259.054 310.492 252.533C313.978 246.034 315.777 238.473 316.256 229.487C316.429 226.827 316.555 224.91 316.7 223.47C316.849 221.985 316.997 221.268 317.126 220.901C317.132 220.885 317.138 220.87 317.143 220.856C317.286 220.788 317.59 220.673 318.355 220.418L318.388 220.407L318.42 220.396C320.157 219.773 323.641 219.364 327.499 219.364C331.344 219.364 334.869 219.77 336.68 220.401C337.462 220.679 337.83 220.819 338.038 220.918C338.088 221.136 338.154 221.573 338.193 222.408C338.245 223.488 338.246 224.935 338.246 227.008C338.246 236.794 340.727 248.563 344.216 255.411L344.221 255.421C353.801 274.061 378.219 282.756 406.317 279.467L406.33 279.465L406.343 279.464C420.36 277.699 428.787 274.941 437.92 268.859L437.925 268.855C444.723 264.307 449.814 258.947 453.333 252.287C456.839 245.653 458.694 237.904 459.289 228.701C459.323 228.199 459.355 227.727 459.384 227.281C459.535 225.028 459.64 223.463 459.832 222.254C460.058 220.829 460.325 220.533 460.406 220.453C460.529 220.332 460.936 220.026 462.549 219.696C463.876 219.424 465.601 219.207 468.022 218.903C468.508 218.842 469.023 218.777 469.568 218.708C473.068 218.27 476.25 217.25 478.158 214.066C479.823 211.288 480.14 207.361 480.14 202.499C480.14 198.578 479.881 195.212 477.443 192.374C476.292 191.034 474.791 189.968 473.018 188.975C471.246 187.983 469.034 186.974 466.347 185.82L466.344 185.818L459.893 183.056L459.75 182.995L459.601 182.948L449.582 179.843L449.459 179.805L449.334 179.778L441.964 178.166L441.938 178.16L441.911 178.155C437.795 177.333 432.46 176.614 430.079 176.489L430.001 176.485H429.922C429.351 176.485 427.783 176.149 425.321 175.266C423.001 174.434 420.231 173.246 417.444 171.854L417.437 171.851L417.431 171.848C412.745 169.535 409.899 168.14 406.763 167.427C403.644 166.717 400.331 166.705 394.797 166.705C381.465 166.705 371.642 169.451 363.584 175.74L363.578 175.745L363.572 175.75C361.767 177.173 357.569 179.189 354.694 179.909C351.137 180.77 344.768 183.016 340.413 184.896C335.019 187.174 331.261 188.113 327.274 187.952C323.197 187.787 318.589 186.462 311.508 183.609C308.365 182.33 305.301 181.163 302.909 180.313C301.715 179.888 300.666 179.534 299.846 179.282C299.439 179.157 299.06 179.048 298.733 178.968H298.732C298.57 178.928 298.252 178.849 297.891 178.81C297.867 178.8 297.839 178.788 297.807 178.773C297.553 178.658 297.182 178.46 296.709 178.173C295.771 177.603 294.614 176.791 293.498 175.888L293.482 175.876L293.467 175.863C285.185 169.344 275.939 166.705 262.359 166.705C256.852 166.705 253.528 166.748 250.327 167.486C247.133 168.223 244.164 169.629 239.303 171.945L239.296 171.948L239.29 171.951C232.646 175.155 227.997 176.485 225.621 176.485H225.553L225.485 176.488C222.781 176.611 217.134 177.32 212.843 178.266L192.883 181.589ZM300.701 225.419V225.429L300.702 225.439C300.759 229.507 300.666 231.979 300.34 233.937C300.028 235.806 299.487 237.306 298.473 239.383C291.669 253.288 271.633 261.949 246.47 260.033C236.819 259.243 229.843 257.514 224.701 254.698C219.661 251.937 216.206 248.034 213.742 242.486C212.252 239.055 211.285 232.798 211.144 226.452C211.075 223.332 211.208 220.317 211.541 217.77C211.884 215.14 212.403 213.307 212.933 212.342L212.937 212.335L212.941 212.328C215.377 207.835 220.214 204.375 229.273 201.945C236.196 200.108 239.849 199.86 258.276 200.09C274.268 200.437 280.708 201.026 284.592 202.249C291.259 204.416 295.032 206.795 297.284 210.015C299.562 213.271 300.645 217.898 300.701 225.419ZM443.506 225.419V225.429V225.439C443.563 229.506 443.47 231.979 443.143 233.936C442.831 235.805 442.29 237.305 441.277 239.382C434.473 253.288 414.436 261.949 389.273 260.033C379.622 259.243 372.646 257.514 367.504 254.698C362.464 251.937 359.009 248.035 356.545 242.487C355.055 239.056 354.088 232.799 353.947 226.453C353.878 223.332 354.011 220.317 354.344 217.77C354.687 215.141 355.207 213.307 355.736 212.343L355.741 212.335L355.744 212.328C358.18 207.835 363.016 204.375 372.075 201.945C378.999 200.108 382.65 199.86 401.078 200.09C417.072 200.437 423.511 201.026 427.395 202.249C434.062 204.416 437.836 206.795 440.088 210.015C442.366 213.271 443.449 217.898 443.506 225.419Z" fill="white" stroke="white" stroke-width="6"/>
<path fill-rule="evenodd" clip-rule="evenodd" d="M296.562 10.832L289.307 15.5501L285.621 11.9827C279.863 6.34477 277.099 7.38038 272.723 16.7009C270.074 22.454 266.735 23.1449 260.977 19.3472C258.673 17.7365 255.794 16.3555 254.642 16.3555C252.109 16.3555 249.69 20.2676 248.654 25.4457C247.848 29.7033 245.084 33.6155 242.78 33.6155C241.975 33.6155 238.98 32.5799 236.101 31.314C231.724 29.3579 230.342 29.2427 227.924 30.2784C225.16 31.5443 224.93 32.2344 224.93 39.8292C224.93 45.3526 224.124 49.6102 222.627 52.8322C220.438 57.6649 220.323 57.78 214.911 57.78C205.928 57.78 201.667 62.2672 206.043 67.2157C208.347 69.6316 206.849 72.1634 202.358 73.1991C194.066 75.2703 191.648 80.5635 196.139 86.2015C199.249 90.2288 199.133 90.8045 194.181 93.106C188.999 95.6371 188.193 98.5143 191.532 102.081C194.066 104.843 194.066 104.958 192.684 120.147C191.303 134.876 191.763 175.955 193.375 180.213C193.836 181.479 192.339 182.744 187.848 185.046C178.404 189.763 177.713 190.684 177.713 198.279C177.713 208.059 179.21 210.591 185.66 211.511C192.224 212.432 196.37 213.927 197.522 215.769C197.982 216.574 198.443 220.256 198.443 224.054C198.443 232.224 200.976 243.73 204.086 249.714C212.838 266.744 235.64 275.374 263.28 272.153C276.87 270.426 284.816 267.78 293.453 262.027C306.351 253.396 312.34 242.349 313.262 224.974C313.952 214.388 313.952 214.388 317.407 213.238C321.899 211.626 333.069 211.626 337.676 213.238C341.246 214.504 341.246 214.504 341.246 222.673C341.246 232.109 343.665 243.386 346.889 249.714C355.642 266.745 378.444 275.375 405.968 272.153C419.673 270.427 427.619 267.78 436.257 262.027C449.155 253.397 455.143 242.005 456.295 224.17C457.101 212.432 456.525 213.008 469.193 211.397C475.643 210.591 477.14 208.06 477.14 198.164C477.14 190.34 475.872 188.844 465.163 184.241L458.713 181.479V169.972C458.598 150.296 455.834 136.373 450.997 131.885C449.385 130.389 445.815 128.088 442.936 126.707C438.444 124.52 437.523 124.405 436.141 125.901C434.76 127.283 435.105 128.548 438.56 135.452C442.821 143.967 446.621 158.351 447.888 170.778L448.694 178.373L441.324 176.762C437.292 175.956 432.11 175.266 429.922 175.151C427.619 175.151 421.861 173.08 416.102 170.203C406.544 165.485 406.083 165.37 394.797 165.37C381.899 165.37 372.8 168.017 365.431 173.77C363.242 175.496 358.635 177.682 355.411 178.488C352.071 179.293 345.852 181.48 341.591 183.321C330.421 188.039 324.663 187.809 310.382 182.055C304.163 179.524 298.29 177.452 297.484 177.452C296.678 177.452 294.029 175.841 291.61 173.885C284.01 167.902 275.487 165.37 262.359 165.37C251.188 165.37 250.497 165.6 240.593 170.318C233.913 173.54 228.731 175.151 225.621 175.151C223.088 175.266 217.56 175.956 213.414 176.877C201.667 179.409 202.589 180.904 203.51 161.573C204.201 145.003 206.389 130.965 208.923 126.132C211.802 120.723 234.604 109.101 257.176 101.507C285.161 92.1868 316.601 88.6194 352.071 91.0361C382.475 92.9921 390.536 95.5233 424.164 113.589C435.911 119.918 446.851 124.981 449.385 125.326C453.531 125.901 453.876 125.671 455.143 122.219C457.907 114.279 455.719 94.2574 451.112 85.1672C447.658 78.4936 447.427 75.9618 449.385 69.0579C450.767 64.2246 450.767 63.189 449.04 60.6579C447.427 58.2412 446.275 57.7813 441.669 57.7813C438.675 57.8964 434.068 58.3564 431.42 58.8169C426.698 59.7374 426.583 59.7374 427.159 56.7457C429.462 45.4691 426.698 42.9373 415.526 45.8139C411.957 46.7343 408.617 47.31 408.386 46.9646C408.041 46.6198 408.386 43.1676 409.193 39.3706C410.574 33.1569 410.46 32.1213 408.847 30.3948C407.12 28.7841 406.083 28.7841 399.403 30.05C388.694 32.2364 384.662 31.2008 380.747 25.2167C376.716 19.3485 373.031 17.2773 369.231 18.7728C367.157 19.5781 364.97 19.2333 360.824 17.3924C356.447 15.5515 353.914 15.0909 349.998 15.6659C345.968 16.3568 343.779 15.8962 339.979 13.9401C336.064 11.9841 333.875 11.6386 329.153 12.2137C324.087 12.7894 322.244 12.3288 316.37 9.45226C312.685 7.61132 308.309 6.11514 306.697 6C305.085 6 300.593 8.18637 296.562 10.8333V10.832ZM285.506 195.057C299.326 199.544 303.587 205.643 303.702 221.062C303.817 229.232 303.356 231.879 301.168 236.366C293.568 251.9 271.917 260.646 246.235 258.69C226.542 257.079 216.408 251.555 210.995 239.358C207.54 231.418 207.079 212.432 210.304 206.564C213.298 201.04 219.057 197.243 228.5 194.711C235.871 192.755 239.901 192.525 258.327 192.755C274.22 193.101 281.13 193.676 285.506 195.057ZM428.309 195.057C442.129 199.544 446.39 205.643 446.505 221.062C446.62 229.232 446.159 231.879 443.972 236.366C436.371 251.9 414.72 260.646 389.038 258.69C369.345 257.079 359.211 251.555 353.798 239.358C350.343 231.418 349.882 212.432 353.107 206.564C356.101 201.04 361.86 197.243 371.303 194.711C378.674 192.755 382.704 192.525 401.13 192.755C417.023 193.101 423.933 193.676 428.309 195.057Z" fill="white"/>
<mask id="mask1_1_2" style="mask-type:luminance" maskUnits="userSpaceOnUse" x="165" y="-6" width="325" height="291">
<path d="M483.713 0H171.713V279H483.713V0Z" fill="white" stroke="white" stroke-width="12"/>
<path fill-rule="evenodd" clip-rule="evenodd" d="M296.562 10.832L289.307 15.5501L285.621 11.9827C279.863 6.34477 277.099 7.38038 272.723 16.7009C270.074 22.454 266.735 23.1449 260.977 19.3472C258.673 17.7365 255.794 16.3555 254.642 16.3555C252.109 16.3555 249.69 20.2676 248.654 25.4457C247.848 29.7033 245.084 33.6155 242.78 33.6155C241.975 33.6155 238.98 32.5799 236.101 31.314C231.724 29.3579 230.342 29.2427 227.924 30.2784C225.16 31.5443 224.93 32.2344 224.93 39.8292C224.93 45.3526 224.124 49.6102 222.627 52.8322C220.438 57.6649 220.323 57.78 214.911 57.78C205.928 57.78 201.667 62.2672 206.043 67.2157C208.347 69.6316 206.849 72.1634 202.358 73.1991C194.066 75.2703 191.648 80.5635 196.139 86.2015C199.249 90.2288 199.133 90.8045 194.181 93.106C188.999 95.6371 188.193 98.5143 191.532 102.081C194.066 104.843 194.066 104.958 192.684 120.147C191.303 134.876 191.763 175.955 193.375 180.213C193.836 181.479 192.339 182.744 187.848 185.046C178.404 189.763 177.713 190.684 177.713 198.279C177.713 208.059 179.21 210.591 185.66 211.511C192.224 212.432 196.37 213.927 197.522 215.769C197.982 216.574 198.443 220.256 198.443 224.054C198.443 232.224 200.976 243.73 204.086 249.714C212.838 266.744 235.64 275.374 263.28 272.153C276.87 270.426 284.816 267.78 293.453 262.027C306.351 253.396 312.34 242.349 313.262 224.974C313.952 214.388 313.952 214.388 317.407 213.238C321.899 211.626 333.069 211.626 337.676 213.238C341.246 214.504 341.246 214.504 341.246 222.673C341.246 232.109 343.665 243.386 346.889 249.714C355.642 266.745 378.444 275.375 405.968 272.153C419.673 270.427 427.619 267.78 436.257 262.027C449.155 253.397 455.143 242.005 456.295 224.17C457.101 212.432 456.525 213.008 469.193 211.397C475.643 210.591 477.14 208.06 477.14 198.164C477.14 190.34 475.872 188.844 465.163 184.241L458.713 181.479V169.972C458.598 150.296 455.834 136.373 450.997 131.885C449.385 130.389 445.815 128.088 442.936 126.707C438.444 124.52 437.523 124.405 436.141 125.901C434.76 127.283 435.105 128.548 438.56 135.452C442.821 143.967 446.621 158.351 447.888 170.778L448.694 178.373L441.324 176.762C437.292 175.956 432.11 175.266 429.922 175.151C427.619 175.151 421.861 173.08 416.102 170.203C406.544 165.485 406.083 165.37 394.797 165.37C381.899 165.37 372.8 168.017 365.431 173.77C363.242 175.496 358.635 177.682 355.411 178.488C352.071 179.293 345.852 181.48 341.591 183.321C330.421 188.039 324.663 187.809 310.382 182.055C304.163 179.524 298.29 177.452 297.484 177.452C296.678 177.452 294.029 175.841 291.61 173.885C284.01 167.902 275.487 165.37 262.359 165.37C251.188 165.37 250.497 165.6 240.593 170.318C233.913 173.54 228.731 175.151 225.621 175.151C223.088 175.266 217.56 175.956 213.414 176.877C201.667 179.409 202.589 180.904 203.51 161.573C204.201 145.003 206.389 130.965 208.923 126.132C211.802 120.723 234.604 109.101 257.176 101.507C285.161 92.1868 316.601 88.6194 352.071 91.0361C382.475 92.9921 390.536 95.5233 424.164 113.589C435.911 119.918 446.851 124.981 449.385 125.326C453.531 125.901 453.876 125.671 455.143 122.219C457.907 114.279 455.719 94.2574 451.112 85.1672C447.658 78.4936 447.427 75.9618 449.385 69.0579C450.767 64.2246 450.767 63.189 449.04 60.6579C447.427 58.2412 446.275 57.7813 441.669 57.7813C438.675 57.8964 434.068 58.3564 431.42 58.8169C426.698 59.7374 426.583 59.7374 427.159 56.7457C429.462 45.4691 426.698 42.9373 415.526 45.8139C411.957 46.7343 408.617 47.31 408.386 46.9646C408.041 46.6198 408.386 43.1676 409.193 39.3706C410.574 33.1569 410.46 32.1213 408.847 30.3948C407.12 28.7841 406.083 28.7841 399.403 30.05C388.694 32.2364 384.662 31.2008 380.747 25.2167C376.716 19.3485 373.031 17.2773 369.231 18.7728C367.157 19.5781 364.97 19.2333 360.824 17.3924C356.447 15.5515 353.914 15.0909 349.998 15.6659C345.968 16.3568 343.779 15.8962 339.979 13.9401C336.064 11.9841 333.875 11.6386 329.153 12.2137C324.087 12.7894 322.244 12.3288 316.37 9.45226C312.685 7.61132 308.309 6.11514 306.697 6C305.085 6 300.593 8.18637 296.562 10.8333V10.832ZM285.506 195.057C299.326 199.544 303.587 205.643 303.702 221.062C303.817 229.232 303.356 231.879 301.168 236.366C293.568 251.9 271.917 260.646 246.235 258.69C226.542 257.079 216.408 251.555 210.995 239.358C207.54 231.418 207.079 212.432 210.304 206.564C213.298 201.04 219.057 197.243 228.5 194.711C235.871 192.755 239.901 192.525 258.327 192.755C274.22 193.101 281.13 193.676 285.506 195.057ZM428.309 195.057C442.129 199.544 446.39 205.643 446.505 221.062C446.62 229.232 446.159 231.879 443.972 236.366C436.371 251.9 414.72 260.646 389.038 258.69C369.345 257.079 359.211 251.555 353.798 239.358C350.343 231.418 349.882 212.432 353.107 206.564C356.101 201.04 361.86 197.243 371.303 194.711C378.674 192.755 382.704 192.525 401.13 192.755C417.023 193.101 423.933 193.676 428.309 195.057Z" stroke="white" stroke-width="12"/>
</mask>
<g mask="url(#mask1_1_2)">
<path fill-rule="evenodd" clip-rule="evenodd" d="M296.562 10.832L289.307 15.5501L285.621 11.9827C279.863 6.34477 277.099 7.38038 272.723 16.7009C270.074 22.454 266.735 23.1449 260.977 19.3472C258.673 17.7365 255.794 16.3555 254.642 16.3555C252.109 16.3555 249.69 20.2676 248.654 25.4457C247.848 29.7033 245.084 33.6155 242.78 33.6155C241.975 33.6155 238.98 32.5799 236.101 31.314C231.724 29.3579 230.342 29.2427 227.924 30.2784C225.16 31.5443 224.93 32.2344 224.93 39.8292C224.93 45.3526 224.124 49.6102 222.627 52.8322C220.438 57.6649 220.323 57.78 214.911 57.78C205.928 57.78 201.667 62.2672 206.043 67.2157C208.347 69.6316 206.849 72.1634 202.358 73.1991C194.066 75.2703 191.648 80.5635 196.139 86.2015C199.249 90.2288 199.133 90.8045 194.181 93.106C188.999 95.6371 188.193 98.5143 191.532 102.081C194.066 104.843 194.066 104.958 192.684 120.147C191.303 134.876 191.763 175.955 193.375 180.213C193.836 181.479 192.339 182.744 187.848 185.046C178.404 189.763 177.713 190.684 177.713 198.279C177.713 208.059 179.21 210.591 185.66 211.511C192.224 212.432 196.37 213.927 197.522 215.769C197.982 216.574 198.443 220.256 198.443 224.054C198.443 232.224 200.976 243.73 204.086 249.714C212.838 266.744 235.64 275.374 263.28 272.153C276.87 270.426 284.816 267.78 293.453 262.027C306.351 253.396 312.34 242.349 313.262 224.974C313.952 214.388 313.952 214.388 317.407 213.238C321.899 211.626 333.069 211.626 337.676 213.238C341.246 214.504 341.246 214.504 341.246 222.673C341.246 232.109 343.665 243.386 346.889 249.714C355.642 266.745 378.444 275.375 405.968 272.153C419.673 270.427 427.619 267.78 436.257 262.027C449.155 253.397 455.143 242.005 456.295 224.17C457.101 212.432 456.525 213.008 469.193 211.397C475.643 210.591 477.14 208.06 477.14 198.164C477.14 190.34 475.872 188.844 465.163 184.241L458.713 181.479V169.972C458.598 150.296 455.834 136.373 450.997 131.885C449.385 130.389 445.815 128.088 442.936 126.707C438.444 124.52 437.523 124.405 436.141 125.901C434.76 127.283 435.105 128.548 438.56 135.452C442.821 143.967 446.621 158.351 447.888 170.778L448.694 178.373L441.324 176.762C437.292 175.956 432.11 175.266 429.922 175.151C427.619 175.151 421.861 173.08 416.102 170.203C406.544 165.485 406.083 165.37 394.797 165.37C381.899 165.37 372.8 168.017 365.431 173.77C363.242 175.496 358.635 177.682 355.411 178.488C352.071 179.293 345.852 181.48 341.591 183.321C330.421 188.039 324.663 187.809 310.382 182.055C304.163 179.524 298.29 177.452 297.484 177.452C296.678 177.452 294.029 175.841 291.61 173.885C284.01 167.902 275.487 165.37 262.359 165.37C251.188 165.37 250.497 165.6 240.593 170.318C233.913 173.54 228.731 175.151 225.621 175.151C223.088 175.266 217.56 175.956 213.414 176.877C201.667 179.409 202.589 180.904 203.51 161.573C204.201 145.003 206.389 130.965 208.923 126.132C211.802 120.723 234.604 109.101 257.176 101.507C285.161 92.1868 316.601 88.6194 352.071 91.0361C382.475 92.9921 390.536 95.5233 424.164 113.589C435.911 119.918 446.851 124.981 449.385 125.326C453.531 125.901 453.876 125.671 455.143 122.219C457.907 114.279 455.719 94.2574 451.112 85.1672C447.658 78.4936 447.427 75.9618 449.385 69.0579C450.767 64.2246 450.767 63.189 449.04 60.6579C447.427 58.2412 446.275 57.7813 441.669 57.7813C438.675 57.8964 434.068 58.3564 431.42 58.8169C426.698 59.7374 426.583 59.7374 427.159 56.7457C429.462 45.4691 426.698 42.9373 415.526 45.8139C411.957 46.7343 408.617 47.31 408.386 46.9646C408.041 46.6198 408.386 43.1676 409.193 39.3706C410.574 33.1569 410.46 32.1213 408.847 30.3948C407.12 28.7841 406.083 28.7841 399.403 30.05C388.694 32.2364 384.662 31.2008 380.747 25.2167C376.716 19.3485 373.031 17.2773 369.231 18.7728C367.157 19.5781 364.97 19.2333 360.824 17.3924C356.447 15.5515 353.914 15.0909 349.998 15.6659C345.968 16.3568 343.779 15.8962 339.979 13.9401C336.064 11.9841 333.875 11.6386 329.153 12.2137C324.087 12.7894 322.244 12.3288 316.37 9.45226C312.685 7.61132 308.309 6.11514 306.697 6C305.085 6 300.593 8.18637 296.562 10.8333V10.832ZM285.506 195.057C299.326 199.544 303.587 205.643 303.702 221.062C303.817 229.232 303.356 231.879 301.168 236.366C293.568 251.9 271.917 260.646 246.235 258.69C226.542 257.079 216.408 251.555 210.995 239.358C207.54 231.418 207.079 212.432 210.304 206.564C213.298 201.04 219.057 197.243 228.5 194.711C235.871 192.755 239.901 192.525 258.327 192.755C274.22 193.101 281.13 193.676 285.506 195.057ZM428.309 195.057C442.129 199.544 446.39 205.643 446.505 221.062C446.62 229.232 446.159 231.879 443.972 236.366C436.371 251.9 414.72 260.646 389.038 258.69C369.345 257.079 359.211 251.555 353.798 239.358C350.343 231.418 349.882 212.432 353.107 206.564C356.101 201.04 361.86 197.243 371.303 194.711C378.674 192.755 382.704 192.525 401.13 192.755C417.023 193.101 423.933 193.676 428.309 195.057Z" stroke="white" stroke-width="12"/>
</g>
<path d="M278.232 224.653L278.29 224.694L278.349 224.732C279.374 225.395 280.464 226.051 281.419 226.552C281.894 226.801 282.382 227.037 282.841 227.219C283.185 227.355 283.908 227.629 284.7 227.629C285.425 227.629 286.263 227.472 287.044 226.979C287.849 226.47 288.373 225.742 288.663 224.984C289.184 223.621 288.949 222.198 288.667 221.197C288.064 219.059 286.579 216.563 284.595 214.204C279.137 207.47 269.622 203.218 260.63 203.218C255.915 203.218 251.449 204.242 247.147 206.265L245.423 207.075V207.165C242.529 208.816 239.67 211.136 237.414 213.467C236.052 214.874 234.837 216.36 233.941 217.798C233.108 219.135 232.294 220.83 232.294 222.558C232.294 223.471 232.435 224.698 233.178 225.761C234.071 227.039 235.445 227.554 236.757 227.513C237.884 227.477 238.931 227.047 239.777 226.592C240.666 226.113 241.604 225.457 242.577 224.674C246.519 221.568 253.041 219.804 260.046 219.79C267.037 219.777 273.838 221.51 278.232 224.653Z" fill="white" stroke="white" stroke-width="6"/>
<path d="M411.823 224.653L411.88 224.694L411.939 224.732C412.965 225.395 414.054 226.051 415.01 226.552C415.484 226.801 415.973 227.037 416.431 227.219C416.776 227.355 417.499 227.629 418.29 227.629C419.016 227.629 419.853 227.472 420.634 226.978C421.439 226.47 421.963 225.742 422.253 224.984C422.774 223.621 422.54 222.198 422.257 221.197C421.654 219.059 420.169 216.563 418.185 214.204C412.727 207.47 403.213 203.218 394.221 203.218C389.505 203.218 385.04 204.242 380.737 206.265L380.246 206.496L380.231 206.512C376.933 208.165 373.577 210.809 371.004 213.467C369.643 214.874 368.428 216.36 367.531 217.798C366.699 219.135 365.884 220.83 365.884 222.558C365.884 223.471 366.026 224.698 366.769 225.761C367.661 227.039 369.035 227.554 370.347 227.513C371.475 227.477 372.522 227.047 373.367 226.592C374.256 226.113 375.195 225.457 376.167 224.674C380.11 221.568 386.631 219.804 393.636 219.79C400.627 219.777 407.429 221.51 411.823 224.653Z" fill="white" stroke="white" stroke-width="6"/>
<path d="M297.667 264.649L297.676 264.688L297.686 264.727C299.247 270.819 303.757 275.31 310.684 278.649C313.377 279.964 315.592 280.861 318.204 281.392C320.772 281.915 323.582 282.057 327.426 282.057C331.269 282.057 334.08 281.915 336.647 281.392C339.259 280.861 341.474 279.964 344.167 278.649C351.095 275.311 355.605 270.82 357.165 264.727L357.175 264.688L357.184 264.649L357.76 262.117L358.594 258.452H354.835H327.426H300.016H296.257L297.091 262.117L297.667 264.649Z" fill="white" stroke="white" stroke-width="6"/>
<path d="M295.295 307.24H291.788L292.331 310.705C293.984 321.249 301.864 331.818 311.648 336.837C315.439 338.827 320.561 339.917 325.51 340.204C330.465 340.492 335.68 340 339.67 338.472L339.677 338.469L339.684 338.467C350.985 334.076 360.739 322.406 362.523 310.692L363.049 307.24H359.557H295.295Z" fill="white" stroke="white" stroke-width="6"/>
<path d="M366.165 529.883L366.166 529.882L373.561 523.875C376.559 521.44 380.966 521.891 383.405 524.889L366.165 529.883ZM366.165 529.883C364.532 531.211 363.581 533.204 363.581 535.311C363.581 537.411 364.524 539.396 366.145 540.723L395.932 565.687L395.949 565.701L395.966 565.716C397.263 566.769 398.83 567.284 400.379 567.284C402.404 567.284 404.427 566.403 405.812 564.701C408.246 561.71 407.798 557.318 404.819 554.878L381.627 535.353M366.165 529.883L381.627 535.353ZM381.627 535.353L382.39 534.732C385.39 532.296 385.846 527.889 383.406 524.89L381.627 535.353Z" fill="white"/>
<path d="M366.165 529.883L366.166 529.882L373.561 523.875C376.559 521.44 380.966 521.891 383.405 524.889L366.165 529.883ZM366.165 529.883C364.532 531.211 363.581 533.204 363.581 535.311C363.581 537.411 364.524 539.396 366.145 540.723L395.932 565.687L395.949 565.701L395.966 565.716C397.263 566.769 398.83 567.284 400.379 567.284C402.404 567.284 404.427 566.403 405.812 564.701C408.246 561.71 407.798 557.318 404.819 554.878L381.627 535.353M366.165 529.883L381.627 535.353M381.627 535.353L382.39 534.732C385.39 532.296 385.846 527.889 383.406 524.89L381.627 535.353Z" stroke="white" stroke-width="6"/>
<path d="M400.921 492.502C404.697 492.532 407.739 495.615 407.711 499.394C407.711 499.395 407.711 499.397 407.711 499.398L407.38 560.488V560.496C407.35 564.276 404.259 567.312 400.483 567.283C400.482 567.283 400.482 567.283 400.481 567.283L400.505 564.283C399.967 564.279 399.456 564.165 398.993 563.962L400.921 492.502ZM400.921 492.502C397.142 492.472 394.052 495.509 394.022 499.289V499.297L393.69 560.387L400.921 492.502Z" fill="white"/>
<path d="M400.921 492.502C404.697 492.532 407.739 495.615 407.711 499.394C407.711 499.395 407.711 499.397 407.711 499.398L407.38 560.488V560.496C407.35 564.276 404.259 567.312 400.483 567.283C400.482 567.283 400.482 567.283 400.481 567.283L400.505 564.283C399.967 564.279 399.456 564.165 398.993 563.962L400.921 492.502ZM400.921 492.502C397.142 492.472 394.052 495.509 394.022 499.289V499.297L393.69 560.387L400.921 492.502Z" stroke="white" stroke-width="6"/>
<path d="M415.749 535.313C412.87 537.771 412.464 542.091 414.867 545.045C416.251 546.745 418.273 547.627 420.3 547.627C421.851 547.627 423.416 547.111 424.71 546.061L424.712 546.059L431.259 540.74C432.894 539.412 433.843 537.418 433.843 535.311C433.843 533.205 432.894 531.211 431.259 529.883L417.715 518.879C414.716 516.443 410.309 516.897 407.87 519.893C405.431 522.891 405.885 527.299 408.886 529.736L415.749 535.313Z" fill="white" stroke="white" stroke-width="6"/>
<path d="M250.102 418.144C249.201 417.979 248.288 418.074 247.633 418.157C213.1 421.525 181.686 434.4 155.542 455.865C139.747 468.781 131.76 480.068 122.902 492.586C119.184 497.839 115.313 503.309 110.647 509.208L109.02 511.264L110.841 513.152C144.13 547.66 188.871 576.886 237.692 593.037L237.698 593.039C270.256 603.743 292.569 607.209 327.425 607.209C362.278 607.209 384.59 603.743 417.142 593.043C466.381 577.307 507.861 551.511 545.206 514.547L547.095 512.677L545.466 510.576C541.138 504.994 537.231 499.715 533.516 494.696C515.648 470.554 502.231 452.428 467.76 435.435C450.341 426.758 429.842 420.479 413.992 418.839L413.972 418.837L413.952 418.835L406.684 418.181L406.584 418.172L406.483 418.17L406.137 418.162L403.483 418.102L403.101 420.729L402.307 426.179L402.305 426.197L402.302 426.216C400.734 438.016 392.501 448.609 379.355 456.342C366.229 464.064 348.462 468.752 328.577 468.752C308.69 468.752 291.069 464.119 278.004 456.415C264.934 448.707 256.624 438.071 254.727 426.036C254.526 424.73 254.338 423.607 254.118 422.696C253.909 421.832 253.601 420.83 252.997 419.982C252.264 418.955 251.25 418.355 250.102 418.144Z" fill="white" stroke="white" stroke-width="6"/>
<path d="M267.658 377.534L267.748 377.563C285.465 388.939 310.223 392.572 332.78 391.607C344.185 391.119 355.16 389.452 364.57 386.939C373.925 384.44 381.956 381.046 387.302 376.971L390.232 374.739L387.453 372.322L386.944 371.879C386.944 371.879 386.943 371.879 386.943 371.878C384.997 370.184 382.527 368.665 380.089 367.513C372.246 363.768 362.493 364.762 351.204 369.499L351.186 369.507L351.167 369.515L342.64 373.229C342.637 373.231 342.635 373.232 342.632 373.233C337.68 375.353 334.211 376.776 330.701 377.302C327.326 377.808 323.735 377.5 318.676 375.712L318.665 375.708L318.654 375.704C316.475 374.954 314.013 373.846 311.446 372.692C311.303 372.627 311.16 372.563 311.017 372.499C308.455 371.347 305.739 370.137 303.425 369.437C292.197 364.752 282.494 363.784 274.684 367.516C274.482 367.613 274.239 367.727 273.965 367.857C272.767 368.424 270.979 369.269 269.506 370.055C268.635 370.519 267.682 371.061 267.008 371.58C266.828 371.719 266.615 371.896 266.409 372.106C266.232 372.288 265.905 372.649 265.669 373.173C265.417 373.73 265.127 374.841 265.766 376.007C266.333 377.044 267.265 377.411 267.656 377.534H267.658Z" fill="white"/>
<path d="M270.644 376.353C270.644 376.353 270.645 376.352 270.647 376.351M267.658 377.534L267.748 377.563C285.465 388.939 310.223 392.572 332.78 391.607C344.185 391.119 355.16 389.452 364.57 386.939C373.925 384.44 381.956 381.046 387.302 376.971L390.232 374.739L387.453 372.322L386.944 371.879C386.944 371.879 386.943 371.879 386.943 371.878C384.997 370.184 382.527 368.665 380.089 367.513C372.246 363.768 362.493 364.762 351.204 369.499L351.186 369.507L351.167 369.515L342.64 373.229C342.637 373.231 342.635 373.232 342.632 373.233C337.68 375.353 334.211 376.776 330.701 377.302C327.326 377.808 323.735 377.5 318.676 375.712L318.665 375.708L318.654 375.704C316.475 374.954 314.013 373.846 311.446 372.692C311.303 372.627 311.16 372.563 311.017 372.499C308.455 371.347 305.739 370.137 303.425 369.437C292.197 364.752 282.494 363.784 274.684 367.516C274.482 367.613 274.239 367.727 273.965 367.857C272.767 368.424 270.979 369.269 269.506 370.055C268.635 370.519 267.682 371.061 267.008 371.58C266.828 371.719 266.615 371.896 266.409 372.106C266.232 372.288 265.905 372.649 265.669 373.173C265.417 373.73 265.127 374.841 265.766 376.007C266.333 377.044 267.265 377.411 267.656 377.534H267.658Z" stroke="white" stroke-width="6"/>
<path fill-rule="evenodd" clip-rule="evenodd" d="M270.972 358.674C307.728 378.266 348.944 376.089 381.238 358.673V401.592L381.603 401.582V426.782H270.972V358.674Z" fill="#A46E48"/>
<path fill-rule="evenodd" clip-rule="evenodd" d="M270.971 394.436C307.726 414.028 348.944 411.851 381.238 394.436V421.805L406.071 421.186L406.379 421.198C406.379 487.168 248.663 497.044 248.663 421.098L249.278 421.071L270.971 421.182V394.436Z" fill="#A66F49"/>
<path fill-rule="evenodd" clip-rule="evenodd" d="M206.404 123.308C294.117 67.4586 406.333 87.3191 444.246 124.147C455.207 150.524 455.981 175.965 452.757 203.274C460.162 197.961 468.967 199.177 475.906 204.126C478.716 226.787 486.246 271.614 452.506 273.559C440.89 418.166 228.056 436.165 199.286 274.032C165.846 272.879 174.863 227.574 176.953 205.817C184.976 199.714 194.137 202.786 199.824 205.516L206.404 123.308Z" fill="#A66F49"/>
<path fill-rule="evenodd" clip-rule="evenodd" d="M193.375 184.548C193.836 185.814 192.339 187.08 187.848 189.381C178.552 194.024 177.737 194.99 177.713 202.263V202.614C177.713 212.394 179.21 214.925 185.659 215.847C192.224 216.767 196.37 218.262 197.522 220.104C197.982 220.909 198.443 224.591 198.443 228.388C198.443 236.558 200.976 248.066 204.086 254.048C212.839 271.079 235.64 279.709 263.28 276.487C276.869 274.761 284.816 272.114 293.453 266.361C306.352 257.731 312.34 246.685 313.261 229.31C313.952 218.723 313.952 218.723 317.407 217.572C321.899 215.962 333.07 215.962 337.677 217.572C341.246 218.838 341.246 218.838 341.246 227.008C341.246 236.443 343.665 247.72 346.889 254.05C355.641 271.079 378.444 279.709 405.968 276.487C419.673 274.761 427.619 272.114 436.257 266.362C449.154 257.732 455.144 246.34 456.295 228.504C457.101 216.767 456.526 217.343 469.193 215.731C475.642 214.926 477.14 212.394 477.14 202.499C477.14 194.674 475.872 193.179 465.163 188.576L458.713 185.814L448.693 182.708L441.324 181.097C437.293 180.292 432.11 179.6 429.922 179.485C427.619 179.485 421.861 177.414 416.103 174.538C406.544 169.82 406.083 169.705 394.797 169.705C381.899 169.705 372.801 172.352 365.43 178.105C363.242 179.83 358.635 182.017 355.411 182.822C352.071 183.629 345.852 185.814 341.591 187.655C330.421 192.374 324.663 192.143 310.382 186.39C304.164 183.859 298.29 181.787 297.484 181.787C296.677 181.787 294.029 180.177 291.611 178.22C284.01 172.236 275.487 169.705 262.359 169.705C251.188 169.705 250.497 169.935 240.593 174.653C233.913 177.875 228.731 179.485 225.621 179.485C223.087 179.6 217.559 180.292 213.414 181.212L193.375 184.548ZM285.506 199.392C299.325 203.88 303.586 209.978 303.701 225.397C303.816 233.567 303.357 236.214 301.168 240.701C293.568 256.235 271.917 264.981 246.235 263.024C226.542 261.414 216.408 255.891 210.995 243.693C207.54 235.754 207.08 216.767 210.303 210.898C213.298 205.375 219.057 201.578 228.5 199.047C235.871 197.09 239.901 196.86 258.327 197.09C274.22 197.435 281.13 198.011 285.506 199.392ZM428.309 199.392C442.129 203.88 446.39 209.978 446.506 225.397C446.621 233.567 446.159 236.214 443.972 240.701C436.371 256.235 414.719 264.981 389.038 263.024C369.345 261.414 359.21 255.891 353.798 243.693C350.343 235.754 349.883 216.767 353.107 210.898C356.101 205.375 361.86 201.578 371.303 199.047C378.674 197.09 382.704 196.86 401.13 197.09C417.023 197.435 423.933 198.011 428.309 199.392Z" fill="#A66F49"/>
<path fill-rule="evenodd" clip-rule="evenodd" d="M296.562 10.832L289.307 15.5501L285.621 11.9827C279.863 6.34477 277.099 7.38038 272.723 16.7009C270.074 22.454 266.735 23.1449 260.977 19.3472C258.673 17.7365 255.794 16.3555 254.642 16.3555C252.109 16.3555 249.69 20.2676 248.654 25.4457C247.848 29.7033 245.084 33.6155 242.78 33.6155C241.975 33.6155 238.98 32.5799 236.101 31.314C231.724 29.3579 230.342 29.2427 227.924 30.2784C225.16 31.5442 224.93 32.2344 224.93 39.8292C224.93 45.3526 224.124 49.6102 222.627 52.8322C220.438 57.6649 220.323 57.78 214.911 57.78C205.928 57.78 201.667 62.2672 206.043 67.2157C208.347 69.6317 206.849 72.1634 202.358 73.1991C194.066 75.2703 191.648 80.5635 196.139 86.2015C199.249 90.2288 199.133 90.8045 194.181 93.106C188.999 95.6371 188.193 98.5143 191.532 102.081C194.066 104.843 194.066 104.958 192.684 120.147C191.303 134.876 191.763 175.955 193.375 180.213C193.836 181.479 192.339 182.744 187.848 185.046C178.404 189.763 177.713 190.684 177.713 198.279C177.713 208.059 179.21 210.591 185.66 211.511C192.224 212.432 196.37 213.927 197.522 215.769C197.982 216.574 198.443 220.256 198.443 224.054C198.443 232.224 200.976 243.73 204.086 249.714C212.838 266.744 235.64 275.374 263.28 272.153C276.87 270.426 284.816 267.78 293.453 262.027C306.351 253.396 312.34 242.349 313.262 224.974C313.952 214.388 313.952 214.388 317.407 213.238C321.899 211.626 333.069 211.626 337.676 213.238C341.246 214.504 341.246 214.504 341.246 222.673C341.246 232.109 343.665 243.386 346.889 249.714C355.642 266.745 378.444 275.375 405.968 272.153C419.673 270.427 427.619 267.78 436.257 262.027C449.155 253.397 455.144 242.005 456.295 224.17C457.101 212.432 456.525 213.008 469.193 211.397C475.643 210.591 477.14 208.06 477.14 198.164C477.14 190.34 475.872 188.844 465.163 184.241L458.713 181.479V169.972C458.598 150.296 455.834 136.373 450.997 131.885C449.385 130.389 445.815 128.088 442.936 126.707C438.444 124.52 437.523 124.405 436.141 125.901C434.76 127.283 435.105 128.548 438.56 135.452C442.821 143.967 446.621 158.351 447.888 170.778L448.694 178.373L441.324 176.762C437.292 175.956 432.11 175.266 429.922 175.151C427.619 175.151 421.861 173.08 416.102 170.203C406.544 165.485 406.083 165.37 394.797 165.37C381.899 165.37 372.8 168.017 365.431 173.77C363.242 175.496 358.635 177.682 355.411 178.488C352.071 179.293 345.852 181.48 341.591 183.321C330.421 188.039 324.663 187.809 310.382 182.055C304.163 179.524 298.29 177.453 297.484 177.453C296.678 177.453 294.029 175.841 291.61 173.885C284.01 167.902 275.487 165.37 262.359 165.37C251.188 165.37 250.497 165.6 240.593 170.318C233.913 173.54 228.731 175.151 225.621 175.151C223.088 175.266 217.56 175.956 213.414 176.877C201.667 179.409 202.589 180.904 203.51 161.573C204.201 145.003 206.389 130.965 208.923 126.132C211.802 120.723 234.604 109.101 257.176 101.507C285.161 92.1868 316.601 88.6194 352.071 91.0361C382.475 92.9921 390.536 95.5233 424.164 113.589C435.911 119.918 446.851 124.981 449.385 125.326C453.531 125.901 453.876 125.671 455.143 122.219C457.907 114.279 455.719 94.2574 451.112 85.1672C447.658 78.4936 447.427 75.9618 449.385 69.0579C450.767 64.2246 450.767 63.189 449.04 60.6579C447.427 58.2412 446.275 57.7813 441.669 57.7813C438.675 57.8964 434.068 58.3564 431.42 58.8169C426.698 59.7374 426.583 59.7374 427.159 56.7457C429.462 45.4691 426.698 42.9373 415.526 45.8139C411.957 46.7343 408.617 47.31 408.386 46.9646C408.041 46.6198 408.386 43.1676 409.193 39.3706C410.574 33.1569 410.46 32.1213 408.847 30.3948C407.12 28.7841 406.083 28.7841 399.403 30.05C388.694 32.2364 384.662 31.2008 380.747 25.2167C376.716 19.3485 373.031 17.2773 369.231 18.7728C367.157 19.5781 364.97 19.2333 360.824 17.3924C356.447 15.5515 353.914 15.0909 349.998 15.6659C345.968 16.3568 343.779 15.8962 339.979 13.9401C336.064 11.9841 333.875 11.6386 329.153 12.2137C324.087 12.7894 322.244 12.3288 316.37 9.45226C312.685 7.61132 308.309 6.11514 306.697 6C305.085 6 300.593 8.18637 296.562 10.8333V10.832ZM285.506 195.057C299.326 199.544 303.587 205.643 303.702 221.062C303.817 229.232 303.356 231.879 301.168 236.366C293.568 251.9 271.917 260.646 246.235 258.69C226.542 257.079 216.408 251.555 210.995 239.358C207.54 231.418 207.079 212.432 210.304 206.564C213.298 201.04 219.057 197.243 228.5 194.711C235.871 192.755 239.901 192.525 258.327 192.755C274.22 193.101 281.13 193.676 285.506 195.057ZM428.309 195.057C442.129 199.544 446.39 205.643 446.505 221.062C446.62 229.232 446.159 231.879 443.972 236.366C436.371 251.9 414.72 260.646 389.038 258.69C369.345 257.079 359.211 251.555 353.798 239.358C350.343 231.418 349.882 212.432 353.107 206.564C356.101 201.04 361.86 197.243 371.303 194.711C378.674 192.755 382.704 192.525 401.13 192.755C417.023 193.101 423.933 193.676 428.309 195.057Z" fill="#08070B"/>
<path fill-rule="evenodd" clip-rule="evenodd" d="M248.423 208.98C242.319 211.857 235.294 219.106 235.294 222.558C235.294 225.205 237.137 225.205 240.707 222.328C250.035 214.964 269.843 214.964 279.978 222.213C281.935 223.479 284.008 224.629 284.7 224.629C287.118 224.629 285.966 220.487 282.281 216.114C277.444 210.13 268.807 206.218 260.63 206.218C256.369 206.218 252.339 207.139 248.423 208.98Z" fill="#533824"/>
<path fill-rule="evenodd" clip-rule="evenodd" d="M382.013 208.98C375.91 211.857 368.884 219.106 368.884 222.558C368.884 225.205 370.727 225.205 374.298 222.328C383.625 214.964 403.434 214.964 413.568 222.213C415.526 223.479 417.599 224.629 418.29 224.629C420.708 224.629 419.557 220.487 415.871 216.114C411.035 210.13 402.398 206.218 394.221 206.218C389.96 206.218 385.929 207.139 382.014 208.98H382.013Z" fill="#533824"/>
<path fill-rule="evenodd" clip-rule="evenodd" d="M300.592 263.983C301.86 268.931 305.545 272.843 311.994 275.95C317.176 278.481 319.825 279.057 327.426 279.057C335.026 279.057 337.675 278.481 342.857 275.95C349.307 272.843 352.992 268.931 354.259 263.983L354.835 261.452H327.426H300.016L300.592 263.983Z" fill="#AF754C"/>
<path fill-rule="evenodd" clip-rule="evenodd" d="M295.295 310.24C296.792 319.791 304.047 329.572 313.03 334.174C319.594 337.626 331.687 338.317 338.597 335.67C348.962 331.643 357.945 320.826 359.557 310.24H295.295Z" fill="#3E291B"/>
<path d="M368.057 532.211L375.453 526.203C377.167 524.811 379.686 525.07 381.079 526.783C382.472 528.495 382.213 531.012 380.499 532.404L376.92 535.311L402.904 557.187C404.618 558.579 404.878 561.096 403.484 562.808C402.694 563.78 401.541 564.284 400.379 564.284C399.493 564.284 398.6 563.99 397.859 563.388L368.057 538.412C367.124 537.653 366.581 536.514 366.581 535.311C366.581 534.109 367.124 532.97 368.057 532.211Z" fill="#E26E4A"/>
<path d="M400.897 495.502C403.02 495.519 404.728 497.253 404.711 499.374L404.38 560.472C404.363 562.594 402.628 564.3 400.505 564.283C399.967 564.279 399.456 564.165 398.993 563.962C397.628 563.364 396.678 561.995 396.69 560.411L397.022 499.314C397.039 497.191 398.773 495.485 400.897 495.502Z" fill="#E26E4A"/>
<path d="M417.774 537.53L420.505 535.311L410.777 527.408C409.064 526.016 408.804 523.5 410.197 521.787C411.59 520.075 414.109 519.815 415.823 521.207L429.367 532.211C430.301 532.97 430.843 534.109 430.843 535.311C430.843 536.514 430.301 537.653 429.367 538.412L422.82 543.731C422.078 544.333 421.186 544.627 420.3 544.627C419.137 544.627 417.984 544.122 417.194 543.151C415.801 541.439 416.061 538.923 417.774 537.53Z" fill="#C83267"/>
<path fill-rule="evenodd" clip-rule="evenodd" d="M247.961 421.139C213.989 424.446 183.126 437.098 157.444 458.186C135.345 476.255 129.179 490.616 113 511.069C145.965 545.242 190.295 574.197 238.635 590.189C270.88 600.79 292.876 604.209 327.425 604.209C361.975 604.209 383.971 600.79 416.218 590.189C464.985 574.606 506.065 549.069 543.095 512.415C517.733 479.705 507.294 458.266 466.428 438.123C449.268 429.575 429.115 423.419 413.683 421.823L406.415 421.169L406.07 421.161L405.276 426.611C401.822 452.601 369.231 471.752 328.577 471.752C287.925 471.752 255.91 452.829 251.763 426.497C250.957 421.254 250.611 420.797 247.963 421.139H247.961Z" fill="#090E16"/>
<path fill-rule="evenodd" clip-rule="evenodd" d="M269.035 374.822L268.555 374.672C267.241 374.259 273.692 371.316 275.977 370.223C282.697 367.012 291.459 367.668 302.414 372.266C306.642 373.511 312.759 376.846 317.677 378.541C328.511 382.369 334.046 380.172 343.821 375.987L352.365 372.266C363.32 367.668 372.083 367.012 378.802 370.223C381.055 371.286 383.28 372.667 384.974 374.142L385.484 374.585C365.876 389.53 303.023 396.96 269.035 374.822Z" fill="#2C1B18" fill-opacity="0.501961"/>
</g>
<defs>
<filter id="filter0_d_1_2" x="484.333" y="244.254" width="171.62" height="171.62" filterUnits="userSpaceOnUse" color-interpolation-filters="sRGB">
<feFlood flood-opacity="0" result="BackgroundImageFix"/>
<feColorMatrix in="SourceAlpha" type="matrix" values="0 0 0 0 0 0 0 0 0 0 0 0 0 0 0 0 0 0 127 0" result="hardAlpha"/>
<feOffset dy="4"/>
<feGaussianBlur stdDeviation="25"/>
<feComposite in2="hardAlpha" operator="out"/>
<feColorMatrix type="matrix" values="0 0 0 0 0 0 0 0 0 0 0 0 0 0 0 0 0 0 0.5 0"/>
<feBlend mode="normal" in2="BackgroundImageFix" result="effect1_dropShadow_1_2"/>
<feBlend mode="normal" in="SourceGraphic" in2="effect1_dropShadow_1_2" result="shape"/>
</filter>
<filter id="filter1_d_1_2" x="0" y="152.938" width="171.62" height="171.62" filterUnits="userSpaceOnUse" color-interpolation-filters="sRGB">
<feFlood flood-opacity="0" result="BackgroundImageFix"/>
<feColorMatrix in="SourceAlpha" type="matrix" values="0 0 0 0 0 0 0 0 0 0 0 0 0 0 0 0 0 0 127 0" result="hardAlpha"/>
<feOffset dy="4"/>
<feGaussianBlur stdDeviation="25"/>
<feComposite in2="hardAlpha" operator="out"/>
<feColorMatrix type="matrix" values="0 0 0 0 0 0 0 0 0 0 0 0 0 0 0 0 0 0 0.5 0"/>
<feBlend mode="normal" in2="BackgroundImageFix" result="effect1_dropShadow_1_2"/>
<feBlend mode="normal" in="SourceGraphic" in2="effect1_dropShadow_1_2" result="shape"/>
</filter>
<clipPath id="clip0_1_2">
<rect width="656" height="611" fill="white"/>
</clipPath>
</defs>
</svg>
